<svg
    width="22"
    height="22"
    viewBox="0 0 22 22"
    fill="none"
    xmlns="http://www.w3.org/2000/svg"
>
    <rect width="22" height="22" rx="11" fill="#264533" />
    <path
        fill-rule="evenodd"
        clip-rule="evenodd"
        d="M15.125 7.25H13.25V6.875C13.25 6.25368 12.7463 5.75 12.125 5.75H9.875C9.25368 5.75 8.75 6.25368 8.75 6.875V7.25H6.875C6.66789 7.25 6.5 7.41789 6.5 7.625C6.5 7.83211 6.66789 8 6.875 8H7.25V14.75C7.25 15.1642 7.58579 15.5 8 15.5H14C14.4142 15.5 14.75 15.1642 14.75 14.75V8H15.125C15.3321 8 15.5 7.83211 15.5 7.625C15.5 7.41789 15.3321 7.25 15.125 7.25ZM9.5 6.875C9.5 6.66789 9.66789 6.5 9.875 6.5H12.125C12.3321 6.5 12.5 6.66789 12.5 6.875V7.25H9.5V6.875ZM14 14.75H8V8H14V14.75ZM10.25 9.875V12.875C10.25 13.0821 10.0821 13.25 9.875 13.25C9.66789 13.25 9.5 13.0821 9.5 12.875V9.875C9.5 9.66789 9.66789 9.5 9.875 9.5C10.0821 9.5 10.25 9.66789 10.25 9.875ZM12.5 9.875V12.875C12.5 13.0821 12.3321 13.25 12.125 13.25C11.9179 13.25 11.75 13.0821 11.75 12.875V9.875C11.75 9.66789 11.9179 9.5 12.125 9.5C12.3321 9.5 12.5 9.66789 12.5 9.875Z"
        fill="white"
    />
</svg>