<svg
    width="22"
    height="22"
    viewBox="0 0 22 22"
    fill="none"
    xmlns="http://www.w3.org/2000/svg"
>
    <rect width="22" height="22" rx="11" fill="#264533" />
    <path
        fill-rule="evenodd"
        clip-rule="evenodd"
        d="M15.6552 8.43922L13.5608 6.34438C13.4201 6.20369 13.2293 6.12464 13.0304 6.12464C12.8314 6.12464 12.6407 6.20369 12.5 6.34438L6.71984 12.125C6.57855 12.2652 6.49936 12.4561 6.5 12.6552V14.75C6.5 15.1642 6.83579 15.5 7.25 15.5H9.34484C9.54387 15.5006 9.73483 15.4214 9.875 15.2802L15.6552 9.5C15.7958 9.35934 15.8749 9.16855 15.8749 8.96961C15.8749 8.77067 15.7958 8.57988 15.6552 8.43922ZM9.34484 14.75H7.25V12.6552L11.375 8.53016L13.4698 10.625L9.34484 14.75ZM14 10.0944L11.9052 8L13.0302 6.875L15.125 8.96938L14 10.0944Z"
        fill="white"
    />
</svg>